<svg width="60" height="80" viewBox="0 0 60 80" fill="none" xmlns="http://www.w3.org/2000/svg">
<g clip-path="url(#clip0_44_467)">
<path d="M51.424 67.611L50.024 66.178L49.204 66.983L49.484 68.098L51.424 67.615V67.611ZM54 77.9878L53.516 79.94C53.8508 80.0239 54.2015 80.0192 54.534 79.9264C54.8665 79.8336 55.1695 79.6557 55.4135 79.4102C55.6575 79.1647 55.8342 78.8598 55.9264 78.5252C56.0187 78.1906 56.0234 77.8377 55.94 77.5008L54 77.9838V77.9878ZM38 73.9627L36.584 72.5378L34.088 75.0535L37.516 75.9149L38 73.9627ZM38.1 73.862L39.512 75.287C39.8039 74.9944 39.9988 74.6182 40.0702 74.2099C40.1416 73.8016 40.086 73.3811 39.9109 73.0058C39.7358 72.6306 39.4498 72.3189 39.0921 72.1133C38.7343 71.9078 38.3221 71.8184 37.912 71.8575L38.1 73.862ZM36 27.6734H24V31.6985H36V27.6734ZM60 51.8243C60 45.4191 57.4714 39.2762 52.9706 34.747C48.4697 30.2178 42.3652 27.6734 36 27.6734V31.6985C38.6264 31.6985 41.2272 32.2191 43.6537 33.2305C46.0802 34.2419 48.285 35.7244 50.1421 37.5932C51.9993 39.4621 53.4725 41.6807 54.4776 44.1225C55.4827 46.5643 56 49.1814 56 51.8243H60ZM52.824 69.048C55.1 66.802 56.9072 64.1212 58.1395 61.1628C59.3718 58.2044 60.0043 55.0281 60 51.8203H56C56.0044 54.4938 55.4777 57.1411 54.4507 59.6068C53.4238 62.0725 51.9174 64.3066 50.02 66.178L52.824 69.048ZM55.944 77.5008L53.36 67.1199L49.48 68.094L52.056 78.4708L55.936 77.4968L55.944 77.5008ZM37.516 75.9149L53.516 79.94L54.484 76.0356L38.484 72.0105L37.516 75.9149ZM36.684 72.4412L36.584 72.5378L39.416 75.3836L39.512 75.287L36.684 72.4412ZM36 75.9753C36.772 75.9753 37.536 75.935 38.288 75.8666L37.912 71.8575C37.2765 71.9187 36.6384 71.9496 36 71.9501V75.9753ZM24 75.9753H36V71.9501H24V75.9753ZM0 51.8243C0 58.2295 2.52856 64.3724 7.02944 68.9016C11.5303 73.4308 17.6348 75.9753 24 75.9753V71.9501C21.3736 71.9501 18.7728 71.4295 16.3463 70.4181C13.9198 69.4067 11.715 67.9242 9.85786 66.0554C6.10714 62.2811 4 57.162 4 51.8243H0ZM24 27.6734C17.6348 27.6734 11.5303 30.2178 7.02944 34.747C2.52856 39.2762 0 45.4191 0 51.8243H4C4 46.4866 6.10714 41.3675 9.85786 37.5932C13.6086 33.8189 18.6957 31.6985 24 31.6985V27.6734ZM30 51.8243C28.4087 51.8243 26.8826 51.1882 25.7574 50.0559C24.6321 48.9236 24 47.3879 24 45.7866H20C20 48.4554 21.0536 51.015 22.9289 52.9021C24.8043 54.7893 27.3478 55.8495 30 55.8495V51.8243ZM36 45.7866C36 47.3879 35.3679 48.9236 34.2426 50.0559C33.1174 51.1882 31.5913 51.8243 30 51.8243V55.8495C32.6522 55.8495 35.1957 54.7893 37.0711 52.9021C38.9464 51.015 40 48.4554 40 45.7866H36ZM30 39.7488C31.5913 39.7488 33.1174 40.385 34.2426 41.5173C35.3679 42.6495 36 44.1853 36 45.7866H40C40 43.1177 38.9464 40.5582 37.0711 38.671C35.1957 36.7839 32.6522 35.7237 30 35.7237V39.7488ZM30 35.7237C27.3478 35.7237 24.8043 36.7839 22.9289 38.671C21.0536 40.5582 20 43.1177 20 45.7866H24C24 44.1853 24.6321 42.6495 25.7574 41.5173C26.8826 40.385 28.4087 39.7488 30 39.7488V35.7237ZM30 67.9249C34.256 67.9249 38.168 66.4356 41.252 63.9521L38.748 60.8125C36.348 62.7446 33.312 63.8998 30 63.8998V67.9249ZM18.748 63.9521C21.828 66.4356 25.748 67.9249 30 67.9249V63.8998C26.8193 63.9057 23.7323 62.8163 21.252 60.8125L18.748 63.9521Z" fill="#FFFFFF"/>
</g>
<g clip-path="url(#clip1_44_467)">
<path d="M55.9167 13.7526C48.2216 8.63423 39.1958 5.9165 29.9716 5.94037C20.7474 5.96424 11.7356 8.72865 4.06672 13.8868C3.88506 14.0101 3.72932 14.1683 3.60839 14.3522C3.48746 14.5361 3.40371 14.7422 3.36192 14.9586C3.27753 15.3958 3.36919 15.8488 3.61672 16.218C3.86426 16.5872 4.2474 16.8423 4.68186 16.9273C5.11632 17.0122 5.5665 16.92 5.93339 16.6709C13.0569 11.8851 21.4256 9.3211 29.9908 9.30021C38.556 9.27933 46.9369 11.8024 54.0834 16.5535C54.4525 16.7894 54.8989 16.8699 55.3264 16.7776C55.7539 16.6854 56.1283 16.4277 56.3688 16.0603C56.6093 15.6929 56.6967 15.245 56.6122 14.8133C56.5276 14.3817 56.2778 14.0007 55.9167 13.7526V13.7526Z" fill="#FFFFFF"/>
<path d="M30.0834 17.979C23.0455 17.9702 16.1726 20.1235 10.3835 24.1509C10.1213 24.4327 9.96368 24.7968 9.9373 25.1819C9.91092 25.567 10.0174 25.9495 10.2386 26.2648C10.4599 26.5801 10.7825 26.8089 11.152 26.9127C11.5215 27.0165 11.9152 26.9888 12.2668 26.8344C17.4907 23.2398 23.6716 21.3165 30.0001 21.3165C36.3286 21.3165 42.5095 23.2398 47.7334 26.8344C48.098 27.0445 48.5279 27.1084 48.9372 27.0132C49.3465 26.9181 49.705 26.6708 49.941 26.3211C50.1769 25.9713 50.2729 25.5448 50.2097 25.1268C50.1465 24.7089 49.9288 24.3304 49.6001 24.0671C43.8524 20.106 37.0499 17.984 30.0834 17.979V17.979Z" fill="#FFFFFF"/>
</g>
<defs>
<clipPath id="clip0_44_467">
<rect width="60" height="60.3774" fill="#FFFFFF" transform="translate(0 19.623)"/>
</clipPath>
<clipPath id="clip1_44_467">
<rect width="60" height="60.3774" fill="#FFFFFF"/>
</clipPath>
</defs>
</svg>
